<svg style="fill: #4b4952;" xmlns="http://www.w3.org/2000/svg" viewBox="0 0 367.72 512"><title>res-i2</title><g id="Слой_2" data-name="Слой 2"><g id="Capa_1" data-name="Capa 1"><path d="M336.16,160.31H319.62V151.8c0-.14,0-.28,0-.42L312.86,29.81A31.57,31.57,0,0,0,281.35,0H86.53A31.53,31.53,0,0,0,55,30L49.1,151.43v8.88H31.56A31.6,31.6,0,0,0,0,191.87v8a7.52,7.52,0,0,0,7.51,7.52H49.1V400.28c0,.17,0,.34,0,.51l5.51,81.77A31.64,31.64,0,0,0,86.11,512H281.83a31.7,31.7,0,0,0,31.46-29.14l6.31-82a5.62,5.62,0,0,0,0-.58V207.41H360.2a7.52,7.52,0,0,0,7.52-7.52v-8A31.6,31.6,0,0,0,336.16,160.31ZM48.09,192.38H15v-.51a16.55,16.55,0,0,1,16.53-16.53H48.09ZM87.17,39.58c0-3.48,6.44-8.52,16.53-8.52s16.53,5,16.53,8.52-6.44,8.51-16.53,8.51S87.17,43.05,87.17,39.58ZM97.64,431.84H270.08l-5,65.13H102.65Zm207-31.85-6.28,81.72A16.61,16.61,0,0,1,281.83,497h-1.68l7.39-96.11c0-.19,0-.39,0-.58V276.16a7.52,7.52,0,1,0-15,0V400l-1.29,16.82H96.48L95.19,400V87.15l.5,0h38.13l-13.3,46.53A7.51,7.51,0,0,0,135,137.83l14.48-50.66h68.82l14.47,50.66a7.51,7.51,0,0,0,14.45-4.13L233.9,87.17h38.63V239.79a7.52,7.52,0,1,0,15,0V55.41c5-4.15,8-9.68,8-15.83C295.58,26.37,281.71,16,264,16s-31.57,10.34-31.57,23.55S246.32,63.12,264,63.12a42.64,42.64,0,0,0,8.51-.84v9.86H95.69a4.07,4.07,0,0,0-.5,0V62.28a42.64,42.64,0,0,0,8.51.84c17.7,0,31.56-10.34,31.56-23.54S121.4,16,103.7,16,72.14,26.37,72.14,39.58c0,6.15,3,11.68,8,15.83V400.28a5.62,5.62,0,0,0,0,.58L87.57,497H86.11a16.58,16.58,0,0,1-16.5-15.42L64.13,400V152L70,30.76A16.52,16.52,0,0,1,86.53,15H281.35a16.53,16.53,0,0,1,16.5,15.61L304.59,152ZM264,48.09c-10.1,0-16.54-5-16.54-8.51s6.44-8.52,16.54-8.52,16.53,5,16.53,8.52S274.11,48.09,264,48.09Zm88.67,144.29H319.62v-17h16.54a16.55,16.55,0,0,1,16.53,16.53Z"/><path d="M248,160.31H119.73a7.52,7.52,0,0,0-7.51,7.52v56.11a7.51,7.51,0,0,0,7.51,7.51H248a7.51,7.51,0,0,0,7.52-7.51V167.83A7.52,7.52,0,0,0,248,160.31Zm-7.51,56.11H127.25V175.34H240.47Z"/><path d="M248,344.67H119.73a7.52,7.52,0,0,0-7.51,7.52v40.08a7.51,7.51,0,0,0,7.51,7.51H248a7.51,7.51,0,0,0,7.52-7.51V352.19A7.52,7.52,0,0,0,248,344.67Zm-7.51,40.08H127.25V359.7H240.47Z"/></g></g></svg>