<svg xmlns="http://www.w3.org/2000/svg" viewBox="0 0 423.83 512"><title>how-i1</title><g id="Слой_2" data-name="Слой 2"><g id="Capa_1" data-name="Capa 1"><path d="M167.83,448.88H135.77a7.51,7.51,0,0,0-7.52,7.51v24.05a7.51,7.51,0,0,0,7.52,7.51h32.06a7.51,7.51,0,0,0,7.51-7.51V456.39A7.51,7.51,0,0,0,167.83,448.88Zm-7.52,24h-17v-9h17Z"/><path d="M167.83,32.06H135.77a7.52,7.52,0,1,0,0,15h32.06a7.52,7.52,0,0,0,0-15Z"/><path d="M143.78,160.31H95.69a7.52,7.52,0,1,0,0,15h48.09a7.52,7.52,0,1,0,0-15Z"/><path d="M151.8,240.47H95.69a7.52,7.52,0,1,0,0,15H151.8a7.52,7.52,0,0,0,0-15Z"/><path d="M303.59,136.48V39.58A39.62,39.62,0,0,0,264,0H39.58A39.62,39.62,0,0,0,0,39.58V344.17a7.52,7.52,0,1,0,15,0v-265H288.56v57.33a134.62,134.62,0,0,0-33.06,6V111.72A7.52,7.52,0,0,0,248,104.2H55.61a7.52,7.52,0,0,0-7.52,7.52V276a7.59,7.59,0,0,0,2.2,5.31l60.12,60.12a7.56,7.56,0,0,0,5.32,2.2h85.82l-16.74,46c-2.31,6.35,4.7,12.42,10.66,9.16l56.11-30.6a133.68,133.68,0,0,0,37,7.26v49.31H15V379.74a7.52,7.52,0,0,0-15,0v92.68A39.63,39.63,0,0,0,39.58,512H264a39.62,39.62,0,0,0,39.57-39.58v-96.9c67-3.66,120.24-55.86,120.24-119.52S370.55,140.14,303.59,136.48Zm-15,335.94A24.57,24.57,0,0,1,264,497H39.58A24.57,24.57,0,0,1,15,472.42V439.86H288.56ZM15,64.13V39.58A24.57,24.57,0,0,1,39.58,15H264a24.57,24.57,0,0,1,24.54,24.55V64.13ZM108.21,318,73.75,283.55h34.46Zm15,10.62V276a7.52,7.52,0,0,0-7.51-7.52H63.12V119.23H240.47v29a130,130,0,0,0-21.82,12.61,7.45,7.45,0,0,0-2.73-.52H175.84a7.52,7.52,0,0,0,0,15h25.91a121,121,0,0,0-18.78,25H95.69a7.52,7.52,0,1,0,0,15h80.2A112.46,112.46,0,0,0,168.33,256a113.86,113.86,0,0,0,26.17,72.64ZM296.08,360.7A119.52,119.52,0,0,1,253.61,353a7.51,7.51,0,0,0-6.25.43l-41.63,22.71L219.26,339a7.52,7.52,0,0,0-2-8.13C195.4,311,183.36,284.38,183.36,256c0-57.74,50.57-104.71,112.72-104.71S408.8,198.26,408.8,256,358.23,360.7,296.08,360.7Z"/><path d="M328.14,239.47a7.52,7.52,0,0,0,7.52-7.52v-8a31.59,31.59,0,0,0-31.57-31.56h-.5V175.84a7.52,7.52,0,0,0-15,0v16.71a35.57,35.57,0,0,0,3.51,71h8a20.54,20.54,0,0,1,0,41.08h-12a16.55,16.55,0,0,1-16.53-16.53,7.52,7.52,0,0,0-15,0,31.59,31.59,0,0,0,31.56,31.56h.5v16.54a7.52,7.52,0,0,0,15,0V319.45a35.57,35.57,0,0,0-3.5-71h-8a20.55,20.55,0,0,1,0-41.09h12a16.56,16.56,0,0,1,16.54,16.54v8A7.52,7.52,0,0,0,328.14,239.47Z"/></g></g></svg>