<svg xmlns="http://www.w3.org/2000/svg" viewBox="0 0 371.36 512"><title>how-i3</title><g id="Слой_2" data-name="Слой 2"><g id="Capa_1" data-name="Capa 1"><path d="M149.26,81.92H222.1a7.5,7.5,0,0,0,0-15H149.26a7.5,7.5,0,0,0,0,15Z"/><path d="M229.6,135.47a7.5,7.5,0,0,0-7.5-7.5H149.26a7.5,7.5,0,0,0,0,15H222.1A7.49,7.49,0,0,0,229.6,135.47Z"/><path d="M222.1,173.36H159.7a7.51,7.51,0,0,0,0,15h62.4a7.51,7.51,0,0,0,0-15Z"/><path d="M152.2,207.81a7.5,7.5,0,0,0,7.5,7.5H278a7.5,7.5,0,0,0,0-15H159.7A7.5,7.5,0,0,0,152.2,207.81Z"/><path d="M159.7,260.88h62.4a7.51,7.51,0,0,0,0-15H159.7a7.51,7.51,0,0,0,0,15Z"/><path d="M278,272.82H159.7a7.5,7.5,0,0,0,0,15H278a7.5,7.5,0,0,0,0-15Z"/><path d="M159.7,333.38h62.4a7.5,7.5,0,1,0,0-15H159.7a7.5,7.5,0,0,0,0,15Z"/><path d="M278,345.32H159.7a7.5,7.5,0,0,0,0,15H278a7.5,7.5,0,0,0,0-15Z"/><path d="M159.7,405.89h62.4a7.5,7.5,0,1,0,0-15H159.7a7.5,7.5,0,1,0,0,15Z"/><path d="M278,417.83H159.7a7.5,7.5,0,0,0,0,15H278a7.5,7.5,0,0,0,0-15Z"/><path d="M120.43,235.24H95.36a19.09,19.09,0,0,0-19.07,19.07v25.07a19.09,19.09,0,0,0,19.07,19.07h25.07a19.09,19.09,0,0,0,19.07-19.07V254.31A19.09,19.09,0,0,0,120.43,235.24Zm4.07,44.14a4.12,4.12,0,0,1-4.07,4.07H95.36a4.13,4.13,0,0,1-4.07-4.07V254.31a4.13,4.13,0,0,1,4.07-4.07h25.07a4.12,4.12,0,0,1,4.07,4.07Z"/><path d="M120.27,307.75H95.2a19.09,19.09,0,0,0-19.07,19.07v25.07A19.09,19.09,0,0,0,95.2,371h25.07a19.09,19.09,0,0,0,19.07-19.07V326.82A19.09,19.09,0,0,0,120.27,307.75Zm4.07,44.14a4.13,4.13,0,0,1-4.07,4.07H95.2a4.13,4.13,0,0,1-4.07-4.07V326.82a4.12,4.12,0,0,1,4.07-4.07h25.07a4.12,4.12,0,0,1,4.07,4.07Z"/><path d="M120.27,380.25H95.2a19.09,19.09,0,0,0-19.07,19.08v25.06A19.09,19.09,0,0,0,95.2,443.47h25.07a19.09,19.09,0,0,0,19.07-19.08V399.33A19.09,19.09,0,0,0,120.27,380.25Zm4.07,44.15a4.13,4.13,0,0,1-4.07,4.07H95.2a4.13,4.13,0,0,1-4.07-4.07V399.33a4.12,4.12,0,0,1,4.07-4.07h25.07a4.12,4.12,0,0,1,4.07,4.07Z"/><path d="M133.47,167.59l-.18.17a19,19,0,0,0-12.86-5H95.36A19.09,19.09,0,0,0,76.29,181.8v25.07a19.09,19.09,0,0,0,19.07,19.07h25.07a19.09,19.09,0,0,0,19.07-19.07v-24.2l4.46-4.36a7.5,7.5,0,1,0-10.49-10.72Zm-9,39.28a4.12,4.12,0,0,1-4.07,4.07H95.36a4.13,4.13,0,0,1-4.07-4.07V181.8a4.13,4.13,0,0,1,4.07-4.07h25.07a4,4,0,0,1,2.06.6l-12,11.7-4.73-5a7.5,7.5,0,1,0-10.87,10.33l10,10.5a7.5,7.5,0,0,0,10.68.19l8.93-8.73Z"/><path d="M363.86,291.36a7.5,7.5,0,0,0-7.5,7.5v177.3A20.87,20.87,0,0,1,335.52,497H203.18a7.5,7.5,0,0,0,0,15H335.52a35.88,35.88,0,0,0,35.84-35.84V298.86A7.5,7.5,0,0,0,363.86,291.36Z"/><path d="M371.36,84.64a35.88,35.88,0,0,0-35.84-35.85H258.09a15.43,15.43,0,0,0-13.43-7.85h-25.5V33.48a33.48,33.48,0,1,0-67,0v7.46H126.7a15.45,15.45,0,0,0-13.43,7.85H35.84A35.89,35.89,0,0,0,0,84.64V476.16A35.88,35.88,0,0,0,35.84,512H168.18a7.5,7.5,0,1,0,0-15H35.84A20.87,20.87,0,0,1,15,476.16V84.64A20.87,20.87,0,0,1,35.84,63.79h75.42v16.5H41.52a10,10,0,0,0-10,10V470.49a10,10,0,0,0,10,10H329.85a10,10,0,0,0,10-10V90.3a10,10,0,0,0-10-10H260.1V63.79h75.42a20.87,20.87,0,0,1,20.84,20.85V263.86a7.5,7.5,0,0,0,15,0ZM167.2,33.48a18.48,18.48,0,1,1,37,0v7.46h-37ZM126.7,55.94h118a.47.47,0,0,1,.44.43V92.46a.46.46,0,0,1-.44.44h-118a.47.47,0,0,1-.44-.44V56.56s0,0,0,0a.43.43,0,0,0,0,0v-.11A.47.47,0,0,1,126.7,55.94ZM324.87,465.51H46.49V95.29h65A15.52,15.52,0,0,0,126.7,107.9h118a15.5,15.5,0,0,0,15.18-12.61h65Z"/></g></g></svg>