<svg xmlns="http://www.w3.org/2000/svg" viewBox="0 0 552.81 508.3"><title>how-i6</title><g id="Слой_2" data-name="Слой 2"><g id="Capa_1" data-name="Capa 1"><path d="M545.45,279a46.38,46.38,0,0,0-33.71-19c-10.64-.74-20.29,2.87-27.15,10.14-1.51,1.59-3.13,3.34-4.85,5.21a46.28,46.28,0,0,0-27.57-12.11c-10.53-.72-20.09,2.82-26.94,9.94a45.3,45.3,0,0,0-27.52-10h-.19A33.24,33.24,0,0,0,373,273.41c-10,10.59-26.31,29.15-48.46,55.15-45.95-18.36-132.83-50.5-177.81-50.5H8.12a8.13,8.13,0,0,0,0,16.25H146.76c58.27,0,199.94,60.93,201.36,61.55a7.81,7.81,0,0,0,.81.29,26.54,26.54,0,1,1-15.81,50.67l-.26-.08-88.64-24.41A8.12,8.12,0,1,0,239.91,398l88.51,24.38a42.94,42.94,0,0,0,32.47-3,42.78,42.78,0,0,0,22.87-36l23.78-2.5a8.14,8.14,0,0,0,5.39-2.88c.59-.71,58.88-70.69,83.46-96.71,4.45-4.7,10.2-5.36,14.24-5.09a30.26,30.26,0,0,1,21.61,12.25c11.35,15.86-2.76,33.16-7.35,38.09-22.56,24.21-63.94,74.09-71.38,83.09L292.45,490.19a17.87,17.87,0,0,1-14.93.48L123.91,426a8.14,8.14,0,0,0-3.15-.64H8.12a8.13,8.13,0,0,0,0,16.25h111l152.1,64a34.35,34.35,0,0,0,28.5-.92l162.59-81.3a8.16,8.16,0,0,0,2.64-2.1c.47-.57,47.84-57.93,71.83-83.67C554.44,318.7,557.77,296.23,545.45,279ZM362.86,344.71a42.33,42.33,0,0,0-8.67-3.93c-1.59-.68-6.47-2.77-13.76-5.78,20-23.37,35.26-40.75,44.41-50.43a17.07,17.07,0,0,1,12.68-5.14h.11a29,29,0,0,1,16.56,5.8C399.18,302,379.25,325.3,362.86,344.71Zm39.7,20.39-21.19,2.23A43,43,0,0,0,375,355.52c17.69-20.94,46.45-54.66,61.84-70.95,4.44-4.7,10.19-5.36,14.24-5.09a30.07,30.07,0,0,1,17.8,8C444.5,315,411.32,354.61,402.56,365.1Z"/><path d="M423,161.22a8.2,8.2,0,0,0-7.6-5.26H371.49V90.8a8.12,8.12,0,1,0-16.24,0v73.28a8.12,8.12,0,0,0,8.12,8.13h29.11l-115.75,94L161,172.21h29.11a8.12,8.12,0,0,0,8.12-8.13V16.24H355.25V51.81a8.12,8.12,0,0,0,16.24,0V8.12A8.12,8.12,0,0,0,363.37,0H190.08A8.12,8.12,0,0,0,182,8.12V156H138.09A8.12,8.12,0,0,0,133,170.39L271.6,283a8.22,8.22,0,0,0,10.25,0L420.48,170.39A8.2,8.2,0,0,0,423,161.22Z"/><path d="M311.38,111.56a8.13,8.13,0,0,0,8.13-8.13V94.77a34.16,34.16,0,0,0-34.12-34.12h-.54V42.78a8.13,8.13,0,0,0-16.25,0V60.84a38.45,38.45,0,0,0,3.79,76.71h8.67a22.21,22.21,0,0,1,0,44.41h-13a17.89,17.89,0,0,1-17.87-17.87,8.12,8.12,0,1,0-16.24,0,34.15,34.15,0,0,0,34.11,34.11h.54v17.87a8.13,8.13,0,0,0,16.25,0V198a38.45,38.45,0,0,0-3.79-76.71h-8.67a22.2,22.2,0,1,1,0-44.4h13a17.89,17.89,0,0,1,17.87,17.87v8.66A8.13,8.13,0,0,0,311.38,111.56Z"/></g></g></svg>