<svg xmlns="http://www.w3.org/2000/svg" viewBox="0 0 512 512"><title>how-i5</title><g id="Слой_2" data-name="Слой 2"><g id="Capa_1" data-name="Capa 1"><path d="M504.48,497H421.06l-46.24-97.11s.05-.08.07-.13l21.28-41L419,381.55a7.57,7.57,0,0,0,10.62,0L452.4,358.8l45.41,87.94a7.51,7.51,0,1,0,13.35-6.89L431,284.62a7.58,7.58,0,0,0-13.35,0l-50.94,98.24L263.52,166.13v-87h25V103.7a7.59,7.59,0,0,0,2.47,5.57,8.45,8.45,0,0,0,6.05,2H440.36a7.58,7.58,0,0,0,5.31-12.83L418.92,71.64l26.75-26.75a7.58,7.58,0,0,0-5.31-12.83H375.73V7.51A7.51,7.51,0,0,0,368.22,0H256a7.51,7.51,0,0,0-7.51,7.51V166.13L163.14,345.35,110.46,236.69a7.58,7.58,0,0,0-13.54.05L.73,438.78a7.57,7.57,0,0,0,3.06,9.75,7.58,7.58,0,0,0,10.51-3.29L74.89,318l23.5,23.5a7.58,7.58,0,0,0,10.63,0L133,317.53l21.91,45.19L90.94,497H7.51a7.52,7.52,0,0,0,0,15H316.62a7.52,7.52,0,0,0,0-15h-209l67.88-142.55,11.09,11.1a7.53,7.53,0,0,0,10.63,0l26.75-26.75,26.75,26.75a7.53,7.53,0,0,0,10.63,0l26.74-26.75,26.75,26.75a7.6,7.6,0,0,0,10.63,0l11.09-11.1L404.41,497H353.19a7.52,7.52,0,1,0,0,15H504.48a7.52,7.52,0,1,0,0-15ZM424.32,304.42l20.84,40.36-20.83,20.83-20.9-20.91ZM371.14,78.57a7.64,7.64,0,0,0,4.6-7.08V47.09h46.48L403,66.33A7.51,7.51,0,0,0,403,77l19.24,19.24H331.49ZM303.59,92.14v-13h29.22ZM263.52,15h97.19v49.1H263.52ZM103.7,325.53l-22-22,22-46.25L126,303.22Zm216.43,24.05-26.75-26.75a7.51,7.51,0,0,0-10.63,0L256,349.58l-26.75-26.75a7.58,7.58,0,0,0-10.63,0l-26.74,26.75L182.32,340,256,185.31,329.68,340Z"/><path d="M193.48,75.55A7.52,7.52,0,0,0,201,68V62.82a23.17,23.17,0,0,0-20.84-23V31.56a7.52,7.52,0,0,0-15,0v8.59a25.75,25.75,0,0,0,4.91,51h5.21a10.72,10.72,0,1,1,0,21.44h-7.81a8.13,8.13,0,0,1-8.12-8.12,7.52,7.52,0,0,0-15,0,23.18,23.18,0,0,0,20.84,23v8.23a7.52,7.52,0,1,0,15,0v-8.59a25.75,25.75,0,0,0-4.91-51H170a10.72,10.72,0,1,1,0-21.44h7.82A8.12,8.12,0,0,1,186,62.82V68A7.52,7.52,0,0,0,193.48,75.55Z"/><path d="M63.62,179.75a7.52,7.52,0,0,0,7.52-7.51V167A23.18,23.18,0,0,0,50.3,144v-8.24a7.52,7.52,0,0,0-15,0v8.6a25.75,25.75,0,0,0,4.91,51h5.21a10.72,10.72,0,1,1,0,21.44H37.57a8.12,8.12,0,0,1-8.11-8.11,7.52,7.52,0,1,0-15,0,23.17,23.17,0,0,0,20.84,23V240a7.52,7.52,0,0,0,15,0v-8.59a25.75,25.75,0,0,0-4.91-51H40.18a10.72,10.72,0,0,1,0-21.44H48A8.13,8.13,0,0,1,56.11,167v5.21A7.51,7.51,0,0,0,63.62,179.75Z"/><path d="M383.65,212.41h-5.21a10.72,10.72,0,1,1,0-21.44h7.81a8.13,8.13,0,0,1,8.12,8.12v5.21a7.52,7.52,0,0,0,15,0v-5.21a23.18,23.18,0,0,0-20.84-23v-8.23a7.52,7.52,0,1,0-15,0v8.59a25.75,25.75,0,0,0,4.91,51h5.21a10.73,10.73,0,0,1,0,21.45h-7.82a8.13,8.13,0,0,1-8.11-8.12,7.52,7.52,0,1,0-15,0,23.17,23.17,0,0,0,20.84,23V272a7.52,7.52,0,1,0,15,0v-8.59a25.75,25.75,0,0,0-4.91-51Z"/></g></g></svg>