<svg xmlns="http://www.w3.org/2000/svg" viewBox="0 0 496 496"><title>res-i4</title><g id="Слой_2" data-name="Слой 2"><g id="Capa_1" data-name="Capa 1"><path d="M0,216C0,335.1,96.9,432,216,432h8V0h-8C96.9,0,0,96.9,0,216ZM187,18.12a238.33,238.33,0,0,0-63.7,78.73C97,86.55,84.21,74.05,80.15,69.39A199.51,199.51,0,0,1,187,18.12ZM68.83,80.78c6,6.76,20.46,20,47.69,30.79C105.37,137.82,97.22,169.86,96.2,208h-80A199.18,199.18,0,0,1,68.83,80.78Zm0,270.44A199.14,199.14,0,0,1,16.2,224h80c1,37.76,9,69.73,20.43,96.39C89.34,331.16,74.89,344.45,68.84,351.22Zm11.32,11.39c4.06-4.67,16.9-17.21,43.31-27.52a244.49,244.49,0,0,0,64,78.86A199.38,199.38,0,0,1,80.16,362.61ZM208,409.49a226,226,0,0,1-69.21-79.62c18-5.24,40.81-9,69.21-9.66Zm0-105.39c-31.4.65-56.46,5-76.25,11C120.87,290,113.2,259.81,112.18,224H208Zm0-96.1H112.18c1-35.81,8.69-66,19.57-91.14,19.79,6,44.85,10.39,76.25,11Zm0-96.21c-28.39-.63-51.25-4.42-69.21-9.66A226,226,0,0,1,208,22.51Z"/><path d="M456,128H280a40,40,0,0,0-40,40V424a40.08,40.08,0,0,0,32,39.19V496h48V464h96v32h48V463.19A40.07,40.07,0,0,0,496,424V168A40,40,0,0,0,456,128ZM320,144h96V312a48,48,0,0,1-96,0ZM304,480H288V464h16Zm144,0H432V464h16Zm32-56a24,24,0,0,1-24,24h-8V376H432v72H304V376H288v72h-8a24,24,0,0,1-24-24V168a24,24,0,0,1,24-24h24V312a64,64,0,0,0,128,0V144h24a24,24,0,0,1,24,24Z"/><path d="M304,24a8,8,0,0,1,8-8h8V48h96V16h8a8,8,0,0,1,8,8v88h16V24A24,24,0,0,0,424,0H312a24,24,0,0,0-24,24v88h16Zm32-8h64V32H336Z"/></g></g></svg>