<svg xmlns="http://www.w3.org/2000/svg" viewBox="0 0 429.06 487"><title>res-i5</title><g id="Слой_2" data-name="Слой 2"><g id="Capa_1" data-name="Capa 1"><path d="M220.18,265.78a7.64,7.64,0,0,0-2.74-.09,18.17,18.17,0,0,1-16.06-18,8,8,0,1,0-16,0,34.18,34.18,0,0,0,25.12,32.91v8a8,8,0,1,0,16,0v-7.5a34.11,34.11,0,0,0-7-67.5,18.14,18.14,0,1,1,18.14-18.14,8,8,0,1,0,16,0A34.17,34.17,0,0,0,226.51,162v-7.27a8,8,0,1,0-16,0v7.76a34.11,34.11,0,0,0,9,67,18.13,18.13,0,0,1,.66,36.24Z"/><path d="M103.68,222.17A115.84,115.84,0,1,0,219.52,106.34,115.84,115.84,0,0,0,103.68,222.17Zm115.84-99.86a99.86,99.86,0,1,1-99.86,99.86A99.86,99.86,0,0,1,219.52,122.31Z"/><path d="M374.73,357.7l-62.57,29.57a51,51,0,0,0-43.45-26.81l-57.77-1.59a61,61,0,0,1-26.25-6.78l-5.88-3a103.7,103.7,0,0,0-96,.1l.36-13.31a8,8,0,0,0-7.76-8.21L12,325.88a8,8,0,0,0-8.2,7.76L0,472.65a8,8,0,0,0,7.77,8.21l63.34,1.74h.22a8,8,0,0,0,8-7.77l.18-6.65L96,459.37A28.25,28.25,0,0,1,117,457.06l98.26,27.58.52.13a105.31,105.31,0,0,0,21.6,2.23,106.38,106.38,0,0,0,44.52-9.72,7.4,7.4,0,0,0,1-.54l142.48-92.16A8,8,0,0,0,428,373.94,40.36,40.36,0,0,0,374.73,357.7ZM16.19,465.11l3.39-123L67,343.37l-3.38,123ZM274.74,463a90.61,90.61,0,0,1-55.39,6.18l-98-27.51a44.14,44.14,0,0,0-32.93,3.6L80,449.79,82.26,368a87.78,87.78,0,0,1,89.2-4.76l5.88,3a77.18,77.18,0,0,0,33.16,8.56l57.77,1.59a35,35,0,0,1,33.3,27.92l-86-2.38a8,8,0,0,0-.44,16l95,2.61h.22a8,8,0,0,0,8-7.77,50.62,50.62,0,0,0-.77-10.36l64.18-30.33.19-.09a24.4,24.4,0,0,1,27.6,3.86Z"/><path d="M227.51,83.88V8a8,8,0,1,0-16,0V83.88a8,8,0,0,0,16,0Z"/><path d="M287.42,83.88V47.93a8,8,0,0,0-16,0V83.88a8,8,0,0,0,16,0Z"/><path d="M167.6,83.88V47.93a8,8,0,1,0-16,0V83.88a8,8,0,0,0,16,0Z"/></g></g></svg>