<svg xmlns="http://www.w3.org/2000/svg" viewBox="0 0 496 496"><title>res-i3</title><g id="Слой_2" data-name="Слой 2"><g id="Capa_1" data-name="Capa 1"><path d="M264,80H0V496H264a40,40,0,0,0,40-40V120A40,40,0,0,0,264,80Zm24,376a24,24,0,0,1-24,24H16V96H264a24,24,0,0,1,24,24Z"/><polygon points="224 0 224 64 240 64 240 16 480 16 480 480 320 480 320 496 496 496 496 0 224 0"/><path d="M152,128A120,120,0,1,0,272,248,120.13,120.13,0,0,0,152,128Zm-26.1,19.45a133.64,133.64,0,0,0-20.49,28.35,138.91,138.91,0,0,1-19-8.39A103.55,103.55,0,0,1,125.9,147.45Zm-51.55,31.6a149,149,0,0,0,24.27,11.39A152.05,152.05,0,0,0,88.34,240H48.41A103.45,103.45,0,0,1,74.35,179.05ZM48.41,256H88.34a152.05,152.05,0,0,0,10.28,49.56A149.45,149.45,0,0,0,74.35,317,103.45,103.45,0,0,1,48.41,256Zm38,72.59a137.69,137.69,0,0,1,19-8.39,133.64,133.64,0,0,0,20.49,28.35A103.55,103.55,0,0,1,86.38,328.59ZM144,344a116,116,0,0,1-22.86-28.39A138.48,138.48,0,0,1,144,312.24Zm0-47.71a154.93,154.93,0,0,0-30,4.58A135.74,135.74,0,0,1,104.34,256H144ZM144,240H104.34A135.18,135.18,0,0,1,114,195.18a154.93,154.93,0,0,0,30,4.58Zm0-56.25a137.43,137.43,0,0,1-22.86-3.32A116.14,116.14,0,0,1,144,152Zm73.62-16.34a137.69,137.69,0,0,1-19,8.39,133.64,133.64,0,0,0-20.49-28.35A103.55,103.55,0,0,1,217.62,167.41ZM160,152.05a116,116,0,0,1,22.86,28.39A137.43,137.43,0,0,1,160,183.76Zm0,47.71a155.16,155.16,0,0,0,30-4.58A135.74,135.74,0,0,1,199.67,240H160ZM160,256h39.66A135.18,135.18,0,0,1,190,300.82a154.93,154.93,0,0,0-30-4.58Zm0,88V312.24a137.43,137.43,0,0,1,22.86,3.32A116,116,0,0,1,160,344Zm18.1,4.59a133.64,133.64,0,0,0,20.49-28.35,138.91,138.91,0,0,1,19,8.39A103.55,103.55,0,0,1,178.1,348.55ZM229.65,317a149,149,0,0,0-24.27-11.39A152.05,152.05,0,0,0,215.66,256h39.93A103.45,103.45,0,0,1,229.65,317Zm-14-76.95a152.05,152.05,0,0,0-10.28-49.56,149.45,149.45,0,0,0,24.27-11.39A103.46,103.46,0,0,1,255.6,240Z"/><rect x="40" y="400" width="16" height="16"/><rect x="72" y="400" width="200" height="16"/><rect x="256" y="432" width="16" height="16"/><rect x="40" y="432" width="200" height="16"/><rect x="448" y="144" width="16" height="16"/><rect x="416" y="144" width="16" height="16"/><rect x="384" y="144" width="16" height="16"/><rect x="352" y="144" width="16" height="16"/><rect x="320" y="144" width="16" height="16"/><rect x="336" y="192" width="16" height="256"/><rect x="368" y="192" width="16" height="256"/><rect x="400" y="224" width="16" height="224"/><rect x="400" y="192" width="16" height="16"/></g></g></svg>