<?xml version="1.0" encoding="utf-8"?><svg xmlns="http://www.w3.org/2000/svg" xmlns:xlink="http://www.w3.org/1999/xlink"><symbol viewBox="0 0 344.96 344.96" id="check" xmlns="http://www.w3.org/2000/svg"><g data-name="Слой 2"><path d="M321.85 86.24l-40-23.11-23.1-40H212.5L172.48 0l-40 23.11H86.24l-23.11 40-40 23.1v46.21L0 172.48l23.11 40v46.21l40 23.11 23.11 40h46.21l40 23.1 40-23.11h46.21l23.11-40 40-23.11V212.5l23.11-40-23.11-40V86.24zM156.91 243.07a16.79 16.79 0 01-23.34 0l-50.45-50.44a16.19 16.19 0 010-22.89l13.35-13.35a16.19 16.19 0 0122.89 0l25.87 25.87 80.34-80.35a16.19 16.19 0 0122.89 0l13.35 13.35a16.19 16.19 0 010 22.89z" data-name="Capa 1"/></g></symbol><symbol viewBox="0 0 96.124 96.123" id="facebook" xmlns="http://www.w3.org/2000/svg"><path d="M72.089.02L59.624 0C45.62 0 36.57 9.285 36.57 23.656v10.907H24.037a1.96 1.96 0 00-1.96 1.961v15.803a1.96 1.96 0 001.96 1.96H36.57v39.876a1.96 1.96 0 001.96 1.96h16.352a1.96 1.96 0 001.96-1.96V54.287h14.654a1.96 1.96 0 001.96-1.96l.006-15.803a1.963 1.963 0 00-1.961-1.961H56.842v-9.246c0-4.444 1.059-6.7 6.848-6.7l8.397-.003a1.96 1.96 0 001.959-1.96V1.98A1.96 1.96 0 0072.089.02z"/></symbol><symbol viewBox="0 0 423.83 512" id="how-i1" xmlns="http://www.w3.org/2000/svg"><g data-name="Слой 2"><g data-name="Capa 1"><path d="M167.83 448.88h-32.06a7.51 7.51 0 00-7.52 7.51v24.05a7.51 7.51 0 007.52 7.51h32.06a7.51 7.51 0 007.51-7.51v-24.05a7.51 7.51 0 00-7.51-7.51zm-7.52 24h-17v-9h17zm7.52-440.82h-32.06a7.52 7.52 0 100 15h32.06a7.52 7.52 0 000-15zm-24.05 128.25H95.69a7.52 7.52 0 100 15h48.09a7.52 7.52 0 100-15zm8.02 80.16H95.69a7.52 7.52 0 100 15h56.11a7.52 7.52 0 000-15z"/><path d="M303.59 136.48v-96.9A39.62 39.62 0 00264 0H39.58A39.62 39.62 0 000 39.58v304.59a7.52 7.52 0 1015 0v-265h273.56v57.33a134.62 134.62 0 00-33.06 6v-30.78a7.52 7.52 0 00-7.5-7.52H55.61a7.52 7.52 0 00-7.52 7.52V276a7.59 7.59 0 002.2 5.31l60.12 60.12a7.56 7.56 0 005.32 2.2h85.82l-16.74 46c-2.31 6.35 4.7 12.42 10.66 9.16l56.11-30.6a133.68 133.68 0 0037 7.26v49.31H15v-45.02a7.52 7.52 0 00-15 0v92.68A39.63 39.63 0 0039.58 512H264a39.62 39.62 0 0039.57-39.58v-96.9c67-3.66 120.24-55.86 120.24-119.52s-53.26-115.86-120.22-119.52zm-15 335.94A24.57 24.57 0 01264 497H39.58A24.57 24.57 0 0115 472.42v-32.56h273.56zM15 64.13V39.58A24.57 24.57 0 0139.58 15H264a24.57 24.57 0 0124.54 24.55v24.58zM108.21 318l-34.46-34.45h34.46zm15 10.62V276a7.52 7.52 0 00-7.51-7.52H63.12V119.23h177.35v29a130 130 0 00-21.82 12.61 7.45 7.45 0 00-2.73-.52h-40.08a7.52 7.52 0 000 15h25.91a121 121 0 00-18.78 25H95.69a7.52 7.52 0 100 15h80.2a112.46 112.46 0 00-7.56 40.68 113.86 113.86 0 0026.17 72.64zm172.87 32.08a119.52 119.52 0 01-42.47-7.7 7.51 7.51 0 00-6.25.43l-41.63 22.71L219.26 339a7.52 7.52 0 00-2-8.13c-21.86-19.87-33.9-46.49-33.9-74.87 0-57.74 50.57-104.71 112.72-104.71S408.8 198.26 408.8 256s-50.57 104.7-112.72 104.7z"/><path d="M328.14 239.47a7.52 7.52 0 007.52-7.52v-8a31.59 31.59 0 00-31.57-31.56h-.5v-16.55a7.52 7.52 0 00-15 0v16.71a35.57 35.57 0 003.51 71h8a20.54 20.54 0 010 41.08h-12a16.55 16.55 0 01-16.53-16.53 7.52 7.52 0 00-15 0 31.59 31.59 0 0031.56 31.56h.5v16.54a7.52 7.52 0 0015 0v-16.75a35.57 35.57 0 00-3.5-71h-8a20.55 20.55 0 010-41.09h12a16.56 16.56 0 0116.54 16.54v8a7.52 7.52 0 007.47 7.57z"/></g></g></symbol><symbol viewBox="0 0 511.13 512" id="how-i2" xmlns="http://www.w3.org/2000/svg"><g data-name="Слой 2"><g data-name="Capa 1"><path d="M23.8 504a27.36 27.36 0 0038.64 0l107.47-107.45L184.44 382a27.24 27.24 0 007.9-21.4l34.09-34.09a180.65 180.65 0 0087.1 33 6.45 6.45 0 00.76 0 7.5 7.5 0 00.74-15 165.62 165.62 0 01-87.32-36C106.08 210.3 177.69 15 331.78 15c86.73 0 156 65.84 164.38 148.48a7.5 7.5 0 1014.93-1.5C502 72 426.55 0 331.78 0c-147 0-231.89 166.93-146.32 285.61l-34.05 34.05a27.15 27.15 0 00-21.41 7.92L8 449.57a27.3 27.3 0 000 38.64zm150-132.6l-9.23 9.23-33.22-33.22 9.23-9.23a12.32 12.32 0 0117.42 0L173.83 354a12.36 12.36 0 010 17.41zm21-73.92a185.65 185.65 0 0019.74 19.73l-28.22 28.23c-.58-.72-1.21-1.41-1.87-2.08l-15.8-15.79a26.07 26.07 0 00-2.07-1.87zM18.62 460.18L120.77 358 154 391.25 51.83 493.4a12.32 12.32 0 01-17.42 0l-15.8-15.79a12.32 12.32 0 01.01-17.43z"/><path d="M479.08 180.23A146.35 146.35 0 00436 76c-57.47-57.42-151-57.42-208.42 0s-57.45 150.94 0 208.39a147.37 147.37 0 00251.5-104.2zm-147.3 132.3a132 132 0 01-93.59-38.71c-51.6-51.6-51.6-135.57 0-187.18a132.32 132.32 0 1193.59 225.89z"/><path d="M364.4 165.84a45.72 45.72 0 10-65.23 0A48.5 48.5 0 00261.71 213v32a14.5 14.5 0 0014.48 14.48h111.19A14.49 14.49 0 00401.85 245v-32a48.5 48.5 0 00-37.45-47.16zm-32.62-62.7a30.71 30.71 0 11-30.71 30.71 30.75 30.75 0 0130.71-30.71zm55.07 141.38h-16.48v-33a7.5 7.5 0 10-15 0v33h-47.18v-33a7.5 7.5 0 00-15 0v33h-16.48V213a33.49 33.49 0 0133.45-33.44h43.25A33.48 33.48 0 01386.85 213zm124.24-46.03a7.5 7.5 0 10-14.93-1.49 165 165 0 01-147.63 147.61 7.5 7.5 0 00.75 15 6.56 6.56 0 00.76 0 180.07 180.07 0 00161.05-161.12z"/></g></g></symbol><symbol viewBox="0 0 371.36 512" id="how-i3" xmlns="http://www.w3.org/2000/svg"><g data-name="Слой 2"><g data-name="Capa 1"><path d="M149.26 81.92h72.84a7.5 7.5 0 000-15h-72.84a7.5 7.5 0 000 15zm80.34 53.55a7.5 7.5 0 00-7.5-7.5h-72.84a7.5 7.5 0 000 15h72.84a7.49 7.49 0 007.5-7.5zm-7.5 37.89h-62.4a7.51 7.51 0 000 15h62.4a7.51 7.51 0 000-15zm-69.9 34.45a7.5 7.5 0 007.5 7.5H278a7.5 7.5 0 000-15H159.7a7.5 7.5 0 00-7.5 7.5zm7.5 53.07h62.4a7.51 7.51 0 000-15h-62.4a7.51 7.51 0 000 15zM278 272.82H159.7a7.5 7.5 0 000 15H278a7.5 7.5 0 000-15zm-118.3 60.56h62.4a7.5 7.5 0 100-15h-62.4a7.5 7.5 0 000 15zM278 345.32H159.7a7.5 7.5 0 000 15H278a7.5 7.5 0 000-15zm-118.3 60.57h62.4a7.5 7.5 0 100-15h-62.4a7.5 7.5 0 100 15zM278 417.83H159.7a7.5 7.5 0 000 15H278a7.5 7.5 0 000-15zM120.43 235.24H95.36a19.09 19.09 0 00-19.07 19.07v25.07a19.09 19.09 0 0019.07 19.07h25.07a19.09 19.09 0 0019.07-19.07v-25.07a19.09 19.09 0 00-19.07-19.07zm4.07 44.14a4.12 4.12 0 01-4.07 4.07H95.36a4.13 4.13 0 01-4.07-4.07v-25.07a4.13 4.13 0 014.07-4.07h25.07a4.12 4.12 0 014.07 4.07zm-4.23 28.37H95.2a19.09 19.09 0 00-19.07 19.07v25.07A19.09 19.09 0 0095.2 371h25.07a19.09 19.09 0 0019.07-19.07v-25.11a19.09 19.09 0 00-19.07-19.07zm4.07 44.14a4.13 4.13 0 01-4.07 4.07H95.2a4.13 4.13 0 01-4.07-4.07v-25.07a4.12 4.12 0 014.07-4.07h25.07a4.12 4.12 0 014.07 4.07zm-4.07 28.36H95.2a19.09 19.09 0 00-19.07 19.08v25.06a19.09 19.09 0 0019.07 19.08h25.07a19.09 19.09 0 0019.07-19.08v-25.06a19.09 19.09 0 00-19.07-19.08zm4.07 44.15a4.13 4.13 0 01-4.07 4.07H95.2a4.13 4.13 0 01-4.07-4.07v-25.07a4.12 4.12 0 014.07-4.07h25.07a4.12 4.12 0 014.07 4.07zm9.13-256.81l-.18.17a19 19 0 00-12.86-5H95.36a19.09 19.09 0 00-19.07 19.04v25.07a19.09 19.09 0 0019.07 19.07h25.07a19.09 19.09 0 0019.07-19.07v-24.2l4.46-4.36a7.5 7.5 0 10-10.49-10.72zm-9 39.28a4.12 4.12 0 01-4.07 4.07H95.36a4.13 4.13 0 01-4.07-4.07V181.8a4.13 4.13 0 014.07-4.07h25.07a4 4 0 012.06.6l-12 11.7-4.73-5a7.5 7.5 0 10-10.87 10.33l10 10.5a7.5 7.5 0 0010.68.19l8.93-8.73z"/><path d="M363.86 291.36a7.5 7.5 0 00-7.5 7.5v177.3A20.87 20.87 0 01335.52 497H203.18a7.5 7.5 0 000 15h132.34a35.88 35.88 0 0035.84-35.84v-177.3a7.5 7.5 0 00-7.5-7.5z"/><path d="M371.36 84.64a35.88 35.88 0 00-35.84-35.85h-77.43a15.43 15.43 0 00-13.43-7.85h-25.5v-7.46a33.48 33.48 0 10-67 0v7.46H126.7a15.45 15.45 0 00-13.43 7.85H35.84A35.89 35.89 0 000 84.64v391.52A35.88 35.88 0 0035.84 512h132.34a7.5 7.5 0 100-15H35.84A20.87 20.87 0 0115 476.16V84.64a20.87 20.87 0 0120.84-20.85h75.42v16.5H41.52a10 10 0 00-10 10v380.2a10 10 0 0010 10h288.33a10 10 0 0010-10V90.3a10 10 0 00-10-10H260.1V63.79h75.42a20.87 20.87 0 0120.84 20.85v179.22a7.5 7.5 0 0015 0zM167.2 33.48a18.48 18.48 0 1137 0v7.46h-37zm-40.5 22.46h118a.47.47 0 01.44.43v36.09a.46.46 0 01-.44.44h-118a.47.47 0 01-.44-.44V56.45a.47.47 0 01.44-.51zm198.17 409.57H46.49V95.29h65a15.52 15.52 0 0015.21 12.61h118a15.5 15.5 0 0015.18-12.61h65z"/></g></g></symbol><symbol viewBox="0 0 502.38 512" id="how-i4" xmlns="http://www.w3.org/2000/svg"><g data-name="Слой 2"><g data-name="Capa 1"><path d="M500.61 34.83a7.54 7.54 0 00-5.12-2.66l-111.43-9.51L382 6.6a7.55 7.55 0 00-8.38-6.54l-103.37 13a7.38 7.38 0 00-1.26-.23L126.92.7a7.61 7.61 0 00-8.16 6.87l-2.11 24.8L6.6 46.2a7.62 7.62 0 00-6.54 8.42l56.17 446.81c.26 2-.18 4 .65 6a7.61 7.61 0 006.95 4.6h369.91a7.54 7.54 0 007.54-7.54v-9.82l14.6 1.25A7.61 7.61 0 00464 489l38.35-448.67a7.49 7.49 0 00-1.74-5.5zM56.29 381L16 60.22l40.33-5.07zm76.86-364.64l66 5.64-67.19 8.44zM368 16l3.85 30.64H124.32zm81.63 464.26l-8.37-.71V259.19a7.54 7.54 0 00-15.08 0v237.73H71.37V61.68H426.2V224a7.54 7.54 0 1015.08 0V54.14a7.54 7.54 0 00-7.54-7.54h-46.67L386 38l100.71 8.61z"/><path d="M393.53 86.81h-40.21a7.52 7.52 0 00-6.27 3.35L330 115.76a111.46 111.46 0 00-65.12-20.91 7.53 7.53 0 00-7.54 7.54v104.54a7.53 7.53 0 007.54 7.53h104.53a7.54 7.54 0 007.54-7.53 111.8 111.8 0 00-35.26-81.54l15.67-23.51h36.17a7.54 7.54 0 100-15.07zm-31.95 112.58h-89.17v-89.18a96.52 96.52 0 0149.2 18.11l-6.72 10.09a7.54 7.54 0 1012.54 8.37l5.76-8.64a96.77 96.77 0 0128.39 61.25z"/><path d="M393.53 336.09h-68.19l-12-19.22a111.68 111.68 0 0031.46-77.78 7.54 7.54 0 00-7.54-7.54h-97v-97a7.55 7.55 0 00-7.56-7.55A112.08 112.08 0 10302 327.15l12.8 20.48a7.56 7.56 0 006.4 3.54h72.37a7.54 7.54 0 000-15.08zM287.34 275.3a7.54 7.54 0 00-12.78 8l19.36 31a97 97 0 11-68.76-171.9v96.71a7.54 7.54 0 007.54 7.54h96.71a96.64 96.64 0 01-24.36 57zm-118.97 101H104a7.54 7.54 0 000 15.08h64.33a7.54 7.54 0 000-15.08zm96.5 0h-64.33a7.54 7.54 0 100 15.08h64.33a7.54 7.54 0 100-15.08zm-56.29 40.21H104a7.54 7.54 0 000 15.08h104.58a7.54 7.54 0 000-15.08zm56.29 0h-24.13a7.54 7.54 0 000 15.08h24.13a7.54 7.54 0 100-15.08zm-128.67 40.2H104a7.54 7.54 0 100 15.08h32.2a7.54 7.54 0 100-15.08zm128.67 0h-96.5a7.54 7.54 0 100 15.08h96.5a7.54 7.54 0 000-15.08z"/></g></g></symbol><symbol viewBox="0 0 512 512" id="how-i5" xmlns="http://www.w3.org/2000/svg"><g data-name="Слой 2"><g data-name="Capa 1"><path d="M504.48 497h-83.42l-46.24-97.11s.05-.08.07-.13l21.28-41L419 381.55a7.57 7.57 0 0010.62 0l22.78-22.75 45.41 87.94a7.51 7.51 0 1013.35-6.89L431 284.62a7.58 7.58 0 00-13.35 0l-50.94 98.24-103.19-216.73v-87h25v24.57a7.59 7.59 0 002.47 5.57 8.45 8.45 0 006.05 2h143.32a7.58 7.58 0 005.31-12.83l-26.75-26.8 26.75-26.75a7.58 7.58 0 00-5.31-12.83h-64.63V7.51A7.51 7.51 0 00368.22 0H256a7.51 7.51 0 00-7.51 7.51v158.62l-85.35 179.22-52.68-108.66a7.58 7.58 0 00-13.54.05L.73 438.78a7.57 7.57 0 003.06 9.75 7.58 7.58 0 0010.51-3.29L74.89 318l23.5 23.5a7.58 7.58 0 0010.63 0L133 317.53l21.91 45.19L90.94 497H7.51a7.52 7.52 0 000 15h309.11a7.52 7.52 0 000-15h-209l67.88-142.55 11.09 11.1a7.53 7.53 0 0010.63 0l26.75-26.75 26.75 26.75a7.53 7.53 0 0010.63 0l26.74-26.75 26.75 26.75a7.6 7.6 0 0010.63 0l11.09-11.1L404.41 497h-51.22a7.52 7.52 0 100 15h151.29a7.52 7.52 0 100-15zm-80.16-192.58l20.84 40.36-20.83 20.83-20.9-20.91zM371.14 78.57a7.64 7.64 0 004.6-7.08v-24.4h46.48L403 66.33A7.51 7.51 0 00403 77l19.24 19.24h-90.75zm-67.55 13.57v-13h29.22zM263.52 15h97.19v49.1h-97.19zM103.7 325.53l-22-22 22-46.25 22.3 45.94zm216.43 24.05l-26.75-26.75a7.51 7.51 0 00-10.63 0L256 349.58l-26.75-26.75a7.58 7.58 0 00-10.63 0l-26.74 26.75-9.56-9.58L256 185.31 329.68 340z"/><path d="M193.48 75.55A7.52 7.52 0 00201 68v-5.18a23.17 23.17 0 00-20.84-23v-8.26a7.52 7.52 0 00-15 0v8.59a25.75 25.75 0 004.91 51h5.21a10.72 10.72 0 110 21.44h-7.81a8.13 8.13 0 01-8.12-8.12 7.52 7.52 0 00-15 0 23.18 23.18 0 0020.84 23v8.23a7.52 7.52 0 1015 0v-8.59a25.75 25.75 0 00-4.91-51H170a10.72 10.72 0 110-21.44h7.82a8.12 8.12 0 018.18 8.15V68a7.52 7.52 0 007.48 7.55zM63.62 179.75a7.52 7.52 0 007.52-7.51V167a23.18 23.18 0 00-20.84-23v-8.24a7.52 7.52 0 00-15 0v8.6a25.75 25.75 0 004.91 51h5.21a10.72 10.72 0 110 21.44h-7.85a8.12 8.12 0 01-8.11-8.11 7.52 7.52 0 10-15 0 23.17 23.17 0 0020.84 23V240a7.52 7.52 0 0015 0v-8.59a25.75 25.75 0 00-4.91-51h-5.21a10.72 10.72 0 010-21.44H48a8.13 8.13 0 018.11 8.03v5.21a7.51 7.51 0 007.51 7.54zm320.03 32.66h-5.21a10.72 10.72 0 110-21.44h7.81a8.13 8.13 0 018.12 8.12v5.21a7.52 7.52 0 0015 0v-5.21a23.18 23.18 0 00-20.84-23v-8.23a7.52 7.52 0 10-15 0v8.59a25.75 25.75 0 004.91 51h5.21a10.73 10.73 0 010 21.45h-7.82a8.13 8.13 0 01-8.11-8.12 7.52 7.52 0 10-15 0 23.17 23.17 0 0020.84 23V272a7.52 7.52 0 1015 0v-8.59a25.75 25.75 0 00-4.91-51z"/></g></g></symbol><symbol viewBox="0 0 552.81 508.3" id="how-i6" xmlns="http://www.w3.org/2000/svg"><g data-name="Слой 2"><g data-name="Capa 1"><path d="M545.45 279a46.38 46.38 0 00-33.71-19c-10.64-.74-20.29 2.87-27.15 10.14a454.93 454.93 0 00-4.85 5.21 46.28 46.28 0 00-27.57-12.11c-10.53-.72-20.09 2.82-26.94 9.94a45.3 45.3 0 00-27.52-10h-.19A33.24 33.24 0 00373 273.41c-10 10.59-26.31 29.15-48.46 55.15-45.95-18.36-132.83-50.5-177.81-50.5H8.12a8.13 8.13 0 000 16.25h138.64c58.27 0 199.94 60.93 201.36 61.55a7.81 7.81 0 00.81.29 26.54 26.54 0 11-15.81 50.67l-.26-.08-88.64-24.41a8.12 8.12 0 10-4.31 15.67l88.51 24.38a42.94 42.94 0 0032.47-3 42.78 42.78 0 0022.87-36l23.78-2.5a8.14 8.14 0 005.39-2.88c.59-.71 58.88-70.69 83.46-96.71 4.45-4.7 10.2-5.36 14.24-5.09a30.26 30.26 0 0121.61 12.25c11.35 15.86-2.76 33.16-7.35 38.09-22.56 24.21-63.94 74.09-71.38 83.09l-161.06 80.56a17.87 17.87 0 01-14.93.48L123.91 426a8.14 8.14 0 00-3.15-.64H8.12a8.13 8.13 0 000 16.25h111l152.1 64a34.35 34.35 0 0028.5-.92l162.59-81.3a8.16 8.16 0 002.64-2.1c.47-.57 47.84-57.93 71.83-83.67 17.66-18.92 20.99-41.39 8.67-58.62zm-182.59 65.71a42.33 42.33 0 00-8.67-3.93c-1.59-.68-6.47-2.77-13.76-5.78 20-23.37 35.26-40.75 44.41-50.43a17.07 17.07 0 0112.68-5.14h.11a29 29 0 0116.56 5.8c-15.01 16.77-34.94 40.07-51.33 59.48zm39.7 20.39l-21.19 2.23a43 43 0 00-6.37-11.81c17.69-20.94 46.45-54.66 61.84-70.95 4.44-4.7 10.19-5.36 14.24-5.09a30.07 30.07 0 0117.8 8c-24.38 27.52-57.56 67.13-66.32 77.62z"/><path d="M423 161.22a8.2 8.2 0 00-7.6-5.26h-43.91V90.8a8.12 8.12 0 10-16.24 0v73.28a8.12 8.12 0 008.12 8.13h29.11l-115.75 94-115.73-94h29.11a8.12 8.12 0 008.12-8.13V16.24h157.02v35.57a8.12 8.12 0 0016.24 0V8.12A8.12 8.12 0 00363.37 0H190.08A8.12 8.12 0 00182 8.12V156h-43.91a8.12 8.12 0 00-5.09 14.39L271.6 283a8.22 8.22 0 0010.25 0l138.63-112.61a8.2 8.2 0 002.52-9.17z"/><path d="M311.38 111.56a8.13 8.13 0 008.13-8.13v-8.66a34.16 34.16 0 00-34.12-34.12h-.54V42.78a8.13 8.13 0 00-16.25 0v18.06a38.45 38.45 0 003.79 76.71h8.67a22.21 22.21 0 010 44.41h-13a17.89 17.89 0 01-17.87-17.87 8.12 8.12 0 10-16.24 0 34.15 34.15 0 0034.11 34.11h.54v17.87a8.13 8.13 0 0016.25 0V198a38.45 38.45 0 00-3.79-76.71h-8.67a22.2 22.2 0 110-44.4h13a17.89 17.89 0 0117.87 17.87v8.66a8.13 8.13 0 008.12 8.14z"/></g></g></symbol><symbol viewBox="0 0 23.625 23.625" id="info" xmlns="http://www.w3.org/2000/svg"><path d="M11.812 0C5.289 0 0 5.289 0 11.812s5.289 11.813 11.812 11.813 11.813-5.29 11.813-11.813S18.335 0 11.812 0zm2.459 18.307c-.608.24-1.092.422-1.455.548a3.838 3.838 0 01-1.262.189c-.736 0-1.309-.18-1.717-.539s-.611-.814-.611-1.367c0-.215.015-.435.045-.659a8.23 8.23 0 01.147-.759l.761-2.688c.067-.258.125-.503.171-.731.046-.23.068-.441.068-.633 0-.342-.071-.582-.212-.717-.143-.135-.412-.201-.813-.201-.196 0-.398.029-.605.09-.205.063-.383.12-.529.176l.201-.828c.498-.203.975-.377 1.43-.521a4.225 4.225 0 011.29-.218c.731 0 1.295.178 1.692.53.395.353.594.812.594 1.376 0 .117-.014.323-.041.617a4.129 4.129 0 01-.152.811l-.757 2.68a7.582 7.582 0 00-.167.736 3.892 3.892 0 00-.073.626c0 .356.079.599.239.728.158.129.435.194.827.194.185 0 .392-.033.626-.097.232-.064.4-.121.506-.17l-.203.827zm-.134-10.878a1.807 1.807 0 01-1.275.492c-.496 0-.924-.164-1.28-.492a1.57 1.57 0 01-.533-1.193c0-.465.18-.865.533-1.196a1.812 1.812 0 011.28-.497c.497 0 .923.165 1.275.497.353.331.53.731.53 1.196 0 .467-.177.865-.53 1.193z"/></symbol><symbol viewBox="0 0 169.063 169.063" id="instagram" xmlns="http://www.w3.org/2000/svg"><path d="M122.406 0H46.654C20.929 0 0 20.93 0 46.655v75.752c0 25.726 20.929 46.655 46.654 46.655h75.752c25.727 0 46.656-20.93 46.656-46.655V46.655C169.063 20.93 148.133 0 122.406 0zm31.657 122.407c0 17.455-14.201 31.655-31.656 31.655H46.654C29.2 154.063 15 139.862 15 122.407V46.655C15 29.201 29.2 15 46.654 15h75.752c17.455 0 31.656 14.201 31.656 31.655v75.752z"/><path d="M84.531 40.97c-24.021 0-43.563 19.542-43.563 43.563 0 24.02 19.542 43.561 43.563 43.561s43.563-19.541 43.563-43.561c0-24.021-19.542-43.563-43.563-43.563zm0 72.123c-15.749 0-28.563-12.812-28.563-28.561 0-15.75 12.813-28.563 28.563-28.563s28.563 12.813 28.563 28.563c0 15.749-12.814 28.561-28.563 28.561zm45.39-84.842c-2.89 0-5.729 1.17-7.77 3.22a11.053 11.053 0 00-3.23 7.78c0 2.891 1.18 5.73 3.23 7.78 2.04 2.04 4.88 3.22 7.77 3.22 2.9 0 5.73-1.18 7.78-3.22 2.05-2.05 3.22-4.89 3.22-7.78 0-2.9-1.17-5.74-3.22-7.78-2.04-2.05-4.88-3.22-7.78-3.22z"/></symbol><symbol viewBox="0 0 483.3 483.3" id="mail" xmlns="http://www.w3.org/2000/svg"><path d="M424.3 57.75H59.1c-32.6 0-59.1 26.5-59.1 59.1v249.6c0 32.6 26.5 59.1 59.1 59.1h365.1c32.6 0 59.1-26.5 59.1-59.1v-249.5c.1-32.6-26.4-59.2-59-59.2zm32.1 308.7c0 17.7-14.4 32.1-32.1 32.1H59.1c-17.7 0-32.1-14.4-32.1-32.1v-249.5c0-17.7 14.4-32.1 32.1-32.1h365.1c17.7 0 32.1 14.4 32.1 32.1v249.5h.1z"/><path d="M304.8 238.55l118.2-106c5.5-5 6-13.5 1-19.1-5-5.5-13.5-6-19.1-1l-163 146.3-31.8-28.4c-.1-.1-.2-.2-.2-.3-.7-.7-1.4-1.3-2.2-1.9L78.3 112.35c-5.6-5-14.1-4.5-19.1 1.1-5 5.6-4.5 14.1 1.1 19.1l119.6 106.9-119.1 111.5c-5.4 5.1-5.7 13.6-.6 19.1 2.7 2.8 6.3 4.3 9.9 4.3 3.3 0 6.6-1.2 9.2-3.6l120.9-113.1 32.8 29.3c2.6 2.3 5.8 3.4 9 3.4s6.5-1.2 9-3.5l33.7-30.2 120.2 114.2c2.6 2.5 6 3.7 9.3 3.7 3.6 0 7.1-1.4 9.8-4.2 5.1-5.4 4.9-14-.5-19.1l-118.7-112.7z"/></symbol><symbol viewBox="0 0 473.806 473.806" id="phone" xmlns="http://www.w3.org/2000/svg"><path d="M374.456 293.506c-9.7-10.1-21.4-15.5-33.8-15.5-12.3 0-24.1 5.3-34.2 15.4l-31.6 31.5c-2.6-1.4-5.2-2.7-7.7-4-3.6-1.8-7-3.5-9.9-5.3-29.6-18.8-56.5-43.3-82.3-75-12.5-15.8-20.9-29.1-27-42.6 8.2-7.5 15.8-15.3 23.2-22.8 2.8-2.8 5.6-5.7 8.4-8.5 21-21 21-48.2 0-69.2l-27.3-27.3c-3.1-3.1-6.3-6.3-9.3-9.5-6-6.2-12.3-12.6-18.8-18.6-9.7-9.6-21.3-14.7-33.5-14.7s-24 5.1-34 14.7l-.2.2-34 34.3c-12.8 12.8-20.1 28.4-21.7 46.5-2.4 29.2 6.2 56.4 12.8 74.2 16.2 43.7 40.4 84.2 76.5 127.6 43.8 52.3 96.5 93.6 156.7 122.7 23 10.9 53.7 23.8 88 26 2.1.1 4.3.2 6.3.2 23.1 0 42.5-8.3 57.7-24.8.1-.2.3-.3.4-.5 5.2-6.3 11.2-12 17.5-18.1 4.3-4.1 8.7-8.4 13-12.9 9.9-10.3 15.1-22.3 15.1-34.6 0-12.4-5.3-24.3-15.4-34.3l-54.9-55.1zm35.8 105.3c-.1 0-.1.1 0 0-3.9 4.2-7.9 8-12.2 12.2-6.5 6.2-13.1 12.7-19.3 20-10.1 10.8-22 15.9-37.6 15.9-1.5 0-3.1 0-4.6-.1-29.7-1.9-57.3-13.5-78-23.4-56.6-27.4-106.3-66.3-147.6-115.6-34.1-41.1-56.9-79.1-72-119.9-9.3-24.9-12.7-44.3-11.2-62.6 1-11.7 5.5-21.4 13.8-29.7l34.1-34.1c4.9-4.6 10.1-7.1 15.2-7.1 6.3 0 11.4 3.8 14.6 7l.3.3c6.1 5.7 11.9 11.6 18 17.9 3.1 3.2 6.3 6.4 9.5 9.7l27.3 27.3c10.6 10.6 10.6 20.4 0 31-2.9 2.9-5.7 5.8-8.6 8.6-8.4 8.6-16.4 16.6-25.1 24.4-.2.2-.4.3-.5.5-8.6 8.6-7 17-5.2 22.7l.3.9c7.1 17.2 17.1 33.4 32.3 52.7l.1.1c27.6 34 56.7 60.5 88.8 80.8 4.1 2.6 8.3 4.7 12.3 6.7 3.6 1.8 7 3.5 9.9 5.3.4.2.8.5 1.2.7 3.4 1.7 6.6 2.5 9.9 2.5 8.3 0 13.5-5.2 15.2-6.9l34.2-34.2c3.4-3.4 8.8-7.5 15.1-7.5 6.2 0 11.3 3.9 14.4 7.3l.2.2 55.1 55.1c10.3 10.2 10.3 20.7.1 31.3zm-154.2-286.1c26.2 4.4 50 16.8 69 35.8s31.3 42.8 35.8 69c1.1 6.6 6.8 11.2 13.3 11.2.8 0 1.5-.1 2.3-.2 7.4-1.2 12.3-8.2 11.1-15.6-5.4-31.7-20.4-60.6-43.3-83.5s-51.8-37.9-83.5-43.3c-7.4-1.2-14.3 3.7-15.6 11s3.5 14.4 10.9 15.6zm217.2 96.3c-8.9-52.2-33.5-99.7-71.3-137.5s-85.3-62.4-137.5-71.3c-7.3-1.3-14.2 3.7-15.5 11-1.2 7.4 3.7 14.3 11.1 15.6 46.6 7.9 89.1 30 122.9 63.7 33.8 33.8 55.8 76.3 63.7 122.9 1.1 6.6 6.8 11.2 13.3 11.2.8 0 1.5-.1 2.3-.2 7.3-1.1 12.3-8.1 11-15.4z"/></symbol><symbol viewBox="0 0 512 327.64" id="res-i1" xmlns="http://www.w3.org/2000/svg"><g data-name="Слой 2"><g data-name="Capa 1"><path d="M488.45 0h-71.66a7.52 7.52 0 100 15h71.66a8.53 8.53 0 018.55 8.55v280.54a8.53 8.53 0 01-8.52 8.52H23.55a8.53 8.53 0 01-8.55-8.52V23.55A8.53 8.53 0 0123.55 15h356.63a7.52 7.52 0 100-15H23.55A23.57 23.57 0 000 23.55v280.54a23.57 23.57 0 0023.55 23.55h464.9A23.57 23.57 0 00512 304.09V23.55A23.57 23.57 0 00488.45 0z"/><path d="M207.41 63.62a7.52 7.52 0 00-7.52-7.51H55.61a7.52 7.52 0 00-7.52 7.51v160.32a7.52 7.52 0 007.52 7.51h144.28a7.52 7.52 0 007.52-7.51zM95.19 216.42v-24.55a8.52 8.52 0 018.51-8.51h48.1a8.52 8.52 0 018.51 8.51v24.55zm97.19 0h-17v-24.55a23.57 23.57 0 00-23.54-23.54H103.7a23.57 23.57 0 00-23.54 23.54v24.55h-17V71.14h129.22z"/><path d="M127.75 167.33a39.58 39.58 0 10-39.58-39.58 39.63 39.63 0 0039.58 39.58zm0-64.13a24.55 24.55 0 11-24.55 24.55 24.58 24.58 0 0124.55-24.55zM248 56.11a7.52 7.52 0 000 15h136.25a7.52 7.52 0 100-15zm0 55.11h64.13a7.52 7.52 0 000-15H248a7.52 7.52 0 000 15zm215.91-7.52a7.52 7.52 0 00-7.52-7.51H344.17a7.52 7.52 0 000 15h112.22a7.52 7.52 0 007.52-7.49zm-39.58 32.57H248a7.52 7.52 0 000 15h176.33a7.52 7.52 0 000-15zm-72.64 47.59a7.52 7.52 0 00-7.52-7.52H248a7.52 7.52 0 000 15h96.19a7.52 7.52 0 007.5-7.48zm72.64-7.52h-48.1a7.52 7.52 0 000 15h48.1a7.52 7.52 0 000-15zM248 216.42a7.52 7.52 0 000 15h56.11a7.52 7.52 0 100-15zm88.16 15.03h88.17a7.52 7.52 0 000-15h-88.17a7.52 7.52 0 100 15zM55.61 256.5a7.52 7.52 0 100 15h40.08a7.52 7.52 0 000-15zm144.28 0h-72.14a7.52 7.52 0 100 15h72.14a7.52 7.52 0 100-15z"/></g></g></symbol><symbol viewBox="0 0 367.72 512" id="res-i2" xmlns="http://www.w3.org/2000/svg"><g data-name="Слой 2"><g data-name="Capa 1"><path d="M336.16 160.31h-16.54v-8.93l-6.76-121.57A31.57 31.57 0 00281.35 0H86.53A31.53 31.53 0 0055 30l-5.9 121.43v8.88H31.56A31.6 31.6 0 000 191.87v8a7.52 7.52 0 007.51 7.52H49.1v193.4l5.51 81.77A31.64 31.64 0 0086.11 512h195.72a31.7 31.7 0 0031.46-29.14l6.31-82a5.62 5.62 0 000-.58V207.41h40.6a7.52 7.52 0 007.52-7.52v-8a31.6 31.6 0 00-31.56-31.58zM48.09 192.38H15v-.51a16.55 16.55 0 0116.53-16.53h16.56zm39.08-152.8c0-3.48 6.44-8.52 16.53-8.52s16.53 5 16.53 8.52-6.44 8.51-16.53 8.51-16.53-5.04-16.53-8.51zm10.47 392.26h172.44l-5 65.13H102.65zm207-31.85l-6.28 81.72A16.61 16.61 0 01281.83 497h-1.68l7.39-96.11V276.16a7.52 7.52 0 10-15 0V400l-1.29 16.82H96.48L95.19 400V87.15h38.63l-13.3 46.53a7.51 7.51 0 0014.48 4.15l14.48-50.66h68.82l14.47 50.66a7.51 7.51 0 0014.45-4.13L233.9 87.17h38.63v152.62a7.52 7.52 0 1015 0V55.41c5-4.15 8-9.68 8-15.83C295.58 26.37 281.71 16 264 16s-31.57 10.34-31.57 23.55S246.32 63.12 264 63.12a42.64 42.64 0 008.51-.84v9.86H95.69a4.07 4.07 0 00-.5 0v-9.86a42.64 42.64 0 008.51.84c17.7 0 31.56-10.34 31.56-23.54S121.4 16 103.7 16 72.14 26.37 72.14 39.58c0 6.15 3 11.68 8 15.83v344.87a5.62 5.62 0 000 .58L87.57 497h-1.46a16.58 16.58 0 01-16.5-15.42L64.13 400V152L70 30.76A16.52 16.52 0 0186.53 15h194.82a16.53 16.53 0 0116.5 15.61L304.59 152zM264 48.09c-10.1 0-16.54-5-16.54-8.51s6.44-8.52 16.54-8.52 16.53 5 16.53 8.52-6.42 8.51-16.53 8.51zm88.67 144.29h-33.05v-17h16.54a16.55 16.55 0 0116.53 16.53z"/><path d="M248 160.31H119.73a7.52 7.52 0 00-7.51 7.52v56.11a7.51 7.51 0 007.51 7.51H248a7.51 7.51 0 007.52-7.51v-56.11a7.52 7.52 0 00-7.52-7.52zm-7.51 56.11H127.25v-41.08h113.22zM248 344.67H119.73a7.52 7.52 0 00-7.51 7.52v40.08a7.51 7.51 0 007.51 7.51H248a7.51 7.51 0 007.52-7.51v-40.08a7.52 7.52 0 00-7.52-7.52zm-7.51 40.08H127.25V359.7h113.22z"/></g></g></symbol><symbol viewBox="0 0 496 496" id="res-i3" xmlns="http://www.w3.org/2000/svg"><g data-name="Слой 2"><g data-name="Capa 1"><path d="M264 80H0v416h264a40 40 0 0040-40V120a40 40 0 00-40-40zm24 376a24 24 0 01-24 24H16V96h248a24 24 0 0124 24z"/><path d="M224 0v64h16V16h240v464H320v16h176V0H224z"/><path d="M152 128a120 120 0 10120 120 120.13 120.13 0 00-120-120zm-26.1 19.45a133.64 133.64 0 00-20.49 28.35 138.91 138.91 0 01-19-8.39 103.55 103.55 0 0139.49-19.96zm-51.55 31.6a149 149 0 0024.27 11.39A152.05 152.05 0 0088.34 240H48.41a103.45 103.45 0 0125.94-60.95zM48.41 256h39.93a152.05 152.05 0 0010.28 49.56A149.45 149.45 0 0074.35 317a103.45 103.45 0 01-25.94-61zm38 72.59a137.69 137.69 0 0119-8.39 133.64 133.64 0 0020.49 28.35 103.55 103.55 0 01-39.52-19.96zM144 344a116 116 0 01-22.86-28.39 138.48 138.48 0 0122.86-3.37zm0-47.71a154.93 154.93 0 00-30 4.58 135.74 135.74 0 01-9.66-44.87H144zm0-56.29h-39.66a135.18 135.18 0 019.66-44.82 154.93 154.93 0 0030 4.58zm0-56.25a137.43 137.43 0 01-22.86-3.32A116.14 116.14 0 01144 152zm73.62-16.34a137.69 137.69 0 01-19 8.39 133.64 133.64 0 00-20.49-28.35 103.55 103.55 0 0139.49 19.96zM160 152.05a116 116 0 0122.86 28.39 137.43 137.43 0 01-22.86 3.32zm0 47.71a155.16 155.16 0 0030-4.58 135.74 135.74 0 019.67 44.82H160zm0 56.24h39.66a135.18 135.18 0 01-9.66 44.82 154.93 154.93 0 00-30-4.58zm0 88v-31.76a137.43 137.43 0 0122.86 3.32A116 116 0 01160 344zm18.1 4.59a133.64 133.64 0 0020.49-28.35 138.91 138.91 0 0119 8.39 103.55 103.55 0 01-39.49 19.92zM229.65 317a149 149 0 00-24.27-11.39A152.05 152.05 0 00215.66 256h39.93a103.45 103.45 0 01-25.94 61zm-14-76.95a152.05 152.05 0 00-10.28-49.56 149.45 149.45 0 0024.27-11.39A103.46 103.46 0 01255.6 240zM40 400h16v16H40zm32 0h200v16H72zm184 32h16v16h-16zm-216 0h200v16H40zm408-288h16v16h-16zm-32 0h16v16h-16zm-32 0h16v16h-16zm-32 0h16v16h-16zm-32 0h16v16h-16zm16 48h16v256h-16zm32 0h16v256h-16zm32 32h16v224h-16zm0-32h16v16h-16z"/></g></g></symbol><symbol viewBox="0 0 496 496" id="res-i4" xmlns="http://www.w3.org/2000/svg"><g data-name="Слой 2"><path d="M0 216c0 119.1 96.9 216 216 216h8V0h-8C96.9 0 0 96.9 0 216zM187 18.12a238.33 238.33 0 00-63.7 78.73C97 86.55 84.21 74.05 80.15 69.39A199.51 199.51 0 01187 18.12zM68.83 80.78c6 6.76 20.46 20 47.69 30.79-11.15 26.25-19.3 58.29-20.32 96.43h-80A199.18 199.18 0 0168.83 80.78zm0 270.44A199.14 199.14 0 0116.2 224h80c1 37.76 9 69.73 20.43 96.39-27.29 10.77-41.74 24.06-47.79 30.83zm11.32 11.39c4.06-4.67 16.9-17.21 43.31-27.52a244.49 244.49 0 0064 78.86 199.38 199.38 0 01-107.3-51.34zM208 409.49a226 226 0 01-69.21-79.62c18-5.24 40.81-9 69.21-9.66zm0-105.39c-31.4.65-56.46 5-76.25 11-10.88-25.1-18.55-55.29-19.57-91.1H208zm0-96.1h-95.82c1-35.81 8.69-66 19.57-91.14 19.79 6 44.85 10.39 76.25 11zm0-96.21c-28.39-.63-51.25-4.42-69.21-9.66A226 226 0 01208 22.51zM456 128H280a40 40 0 00-40 40v256a40.08 40.08 0 0032 39.19V496h48v-32h96v32h48v-32.81A40.07 40.07 0 00496 424V168a40 40 0 00-40-40zm-136 16h96v168a48 48 0 01-96 0zm-16 336h-16v-16h16zm144 0h-16v-16h16zm32-56a24 24 0 01-24 24h-8v-72h-16v72H304v-72h-16v72h-8a24 24 0 01-24-24V168a24 24 0 0124-24h24v168a64 64 0 00128 0V144h24a24 24 0 0124 24zM304 24a8 8 0 018-8h8v32h96V16h8a8 8 0 018 8v88h16V24a24 24 0 00-24-24H312a24 24 0 00-24 24v88h16zm32-8h64v16h-64z" data-name="Capa 1"/></g></symbol><symbol viewBox="0 0 429.06 487" id="res-i5" xmlns="http://www.w3.org/2000/svg"><g data-name="Слой 2"><g data-name="Capa 1"><path d="M220.18 265.78a7.64 7.64 0 00-2.74-.09 18.17 18.17 0 01-16.06-18 8 8 0 10-16 0 34.18 34.18 0 0025.12 32.91v8a8 8 0 1016 0v-7.5a34.11 34.11 0 00-7-67.5 18.14 18.14 0 1118.14-18.14 8 8 0 1016 0A34.17 34.17 0 00226.51 162v-7.27a8 8 0 10-16 0v7.76a34.11 34.11 0 009 67 18.13 18.13 0 01.66 36.24z"/><path d="M103.68 222.17a115.84 115.84 0 10115.84-115.83 115.84 115.84 0 00-115.84 115.83zm115.84-99.86a99.86 99.86 0 11-99.86 99.86 99.86 99.86 0 0199.86-99.86z"/><path d="M374.73 357.7l-62.57 29.57a51 51 0 00-43.45-26.81l-57.77-1.59a61 61 0 01-26.25-6.78l-5.88-3a103.7 103.7 0 00-96 .1l.36-13.31a8 8 0 00-7.76-8.21L12 325.88a8 8 0 00-8.2 7.76L0 472.65a8 8 0 007.77 8.21l63.34 1.74h.22a8 8 0 008-7.77l.18-6.65L96 459.37a28.25 28.25 0 0121-2.31l98.26 27.58.52.13a105.31 105.31 0 0021.6 2.23 106.38 106.38 0 0044.52-9.72 7.4 7.4 0 001-.54l142.48-92.16a8 8 0 002.62-10.64 40.36 40.36 0 00-53.27-16.24zM16.19 465.11l3.39-123L67 343.37l-3.38 123zM274.74 463a90.61 90.61 0 01-55.39 6.18l-98-27.51a44.14 44.14 0 00-32.93 3.6L80 449.79 82.26 368a87.78 87.78 0 0189.2-4.76l5.88 3a77.18 77.18 0 0033.16 8.56l57.77 1.59a35 35 0 0133.3 27.92l-86-2.38a8 8 0 00-.44 16l95 2.61h.22a8 8 0 008-7.77 50.62 50.62 0 00-.77-10.36l64.18-30.33.19-.09a24.4 24.4 0 0127.6 3.86zM227.51 83.88V8a8 8 0 10-16 0v75.88a8 8 0 0016 0zm59.91 0V47.93a8 8 0 00-16 0v35.95a8 8 0 0016 0zm-119.82 0V47.93a8 8 0 10-16 0v35.95a8 8 0 0016 0z"/></g></g></symbol><symbol viewBox="0 0 24 24" id="viber" xmlns="http://www.w3.org/2000/svg"><path d="M23.155 13.893c.716-6.027-.344-9.832-2.256-11.553l.001-.001C17.814-.6 7.392-1.035 3.7 2.471 2.042 4.186 1.458 6.703 1.394 9.819c-.064 3.117-.14 8.956 5.301 10.54H6.7l-.005 2.419s-.037.98.589 1.177c.716.232 1.04-.223 3.267-2.883 3.724.323 6.584-.417 6.909-.525.752-.252 5.007-.815 5.695-6.654zM10.918 19.37s-2.357 2.939-3.09 3.702c-.24.248-.503.225-.499-.267 0-.323.018-4.016.018-4.016-4.613-1.322-4.341-6.294-4.291-8.895.05-2.602.526-4.733 1.93-6.168C8.225.689 17.362 1.368 19.69 3.556c2.846 2.523 1.833 9.651 1.839 9.894-.585 4.874-4.033 5.183-4.667 5.394-.271.09-2.786.737-5.944.526z"/><path d="M12.222 4.297c-.385 0-.385.6 0 .605 2.987.023 5.447 2.105 5.474 5.924 0 .403.59.398.585-.005h-.001c-.032-4.115-2.718-6.501-6.058-6.524z"/><path d="M16.151 10.193c-.009.398.58.417.585.014.049-2.269-1.35-4.138-3.979-4.335-.385-.028-.425.577-.041.605 2.28.173 3.481 1.729 3.435 3.716zm-.63 2.581c-.494-.286-.997-.108-1.205.173l-.435.563c-.221.286-.634.248-.634.248-3.014-.797-3.82-3.951-3.82-3.951s-.037-.427.239-.656l.544-.45c.272-.216.444-.736.167-1.247-.74-1.337-1.237-1.798-1.49-2.152-.266-.333-.666-.408-1.082-.183h-.009c-.865.506-1.812 1.453-1.509 2.428.517 1.028 1.467 4.305 4.495 6.781 1.423 1.171 3.675 2.371 4.631 2.648l.009.014c.942.314 1.858-.67 2.347-1.561v-.007c.217-.431.145-.839-.172-1.106-.562-.548-1.41-1.153-2.076-1.542z"/><path d="M13.169 8.104c.961.056 1.427.558 1.477 1.589.018.403.603.375.585-.028-.064-1.346-.766-2.096-2.03-2.166-.385-.023-.421.582-.032.605z"/></symbol><symbol viewBox="0 0 30.667 30.667" id="whatsapp" xmlns="http://www.w3.org/2000/svg"><path d="M30.667 14.939c0 8.25-6.74 14.938-15.056 14.938a15.1 15.1 0 01-7.276-1.857L0 30.667l2.717-8.017a14.787 14.787 0 01-2.159-7.712C.559 6.688 7.297 0 15.613 0c8.315.002 15.054 6.689 15.054 14.939zM15.61 2.382c-6.979 0-12.656 5.634-12.656 12.56 0 2.748.896 5.292 2.411 7.362l-1.58 4.663 4.862-1.545c2 1.312 4.393 2.076 6.963 2.076 6.979 0 12.658-5.633 12.658-12.559C28.27 8.016 22.59 2.382 15.61 2.382zm7.604 15.998c-.094-.151-.34-.243-.708-.427-.367-.184-2.184-1.069-2.521-1.189-.34-.123-.586-.185-.832.182-.243.367-.951 1.191-1.168 1.437-.215.245-.43.276-.799.095-.369-.186-1.559-.57-2.969-1.817-1.097-.972-1.838-2.169-2.052-2.536-.217-.366-.022-.564.161-.746.165-.165.369-.428.554-.643.185-.213.246-.364.369-.609.121-.245.06-.458-.031-.643-.092-.184-.829-1.984-1.138-2.717-.307-.732-.614-.611-.83-.611-.215 0-.461-.03-.707-.03s-.646.089-.983.456-1.291 1.252-1.291 3.054c0 1.804 1.321 3.543 1.506 3.787.186.243 2.554 4.062 6.305 5.528 3.753 1.465 3.753.976 4.429.914.678-.062 2.184-.885 2.49-1.739.308-.858.308-1.593.215-1.746z"/></symbol></svg>