<svg style="fill: #4b4952;" xmlns="http://www.w3.org/2000/svg" viewBox="0 0 511.13 512"><title>how-i2</title><g id="Слой_2" data-name="Слой 2"><g id="Capa_1" data-name="Capa 1"><path d="M23.8,504a27.36,27.36,0,0,0,38.64,0L169.91,396.55,184.44,382a27.24,27.24,0,0,0,7.9-21.4l34.09-34.09a180.65,180.65,0,0,0,87.1,33,6.45,6.45,0,0,0,.76,0,7.5,7.5,0,0,0,.74-15,165.62,165.62,0,0,1-87.32-36C106.08,210.3,177.69,15,331.78,15c86.73,0,156,65.84,164.38,148.48a7.5,7.5,0,1,0,14.93-1.5C502,72,426.55,0,331.78,0c-147,0-231.89,166.93-146.32,285.61l-34.05,34.05A27.15,27.15,0,0,0,130,327.58L8,449.57a27.3,27.3,0,0,0,0,38.64Zm150-132.6-9.23,9.23-33.22-33.22,9.23-9.23a12.32,12.32,0,0,1,17.42,0L173.83,354v0A12.36,12.36,0,0,1,173.83,371.41Zm21-73.92a185.65,185.65,0,0,0,19.74,19.73l-28.22,28.23c-.58-.72-1.21-1.41-1.87-2.08l-15.8-15.79a26.07,26.07,0,0,0-2.07-1.87ZM18.62,460.18,120.77,358,154,391.25,51.83,493.4a12.32,12.32,0,0,1-17.42,0l-15.8-15.79A12.32,12.32,0,0,1,18.62,460.18Z"/><path d="M479.08,180.23A146.35,146.35,0,0,0,436,76C378.53,18.58,285,18.58,227.58,76s-57.45,150.94,0,208.39a147.37,147.37,0,0,0,251.5-104.2Zm-147.3,132.3a132,132,0,0,1-93.59-38.71c-51.6-51.6-51.6-135.57,0-187.18a132.32,132.32,0,1,1,93.59,225.89Z"/><path d="M364.4,165.84a45.72,45.72,0,1,0-65.23,0A48.5,48.5,0,0,0,261.71,213v32a14.5,14.5,0,0,0,14.48,14.48H387.38A14.49,14.49,0,0,0,401.85,245V213A48.5,48.5,0,0,0,364.4,165.84Zm-32.62-62.7a30.71,30.71,0,1,1-30.71,30.71A30.75,30.75,0,0,1,331.78,103.14Zm55.07,141.38H370.37v-33a7.5,7.5,0,1,0-15,0v33H308.19v-33a7.5,7.5,0,0,0-15,0v33H276.71V213a33.49,33.49,0,0,1,33.45-33.44h43.25A33.48,33.48,0,0,1,386.85,213Z"/><path d="M511.09,198.49A7.5,7.5,0,1,0,496.16,197,165,165,0,0,1,348.53,344.61a7.5,7.5,0,0,0,.75,15,6.56,6.56,0,0,0,.76,0A180.07,180.07,0,0,0,511.09,198.49Z"/></g></g></svg>