<svg style="fill: #4b4952;" xmlns="http://www.w3.org/2000/svg" viewBox="0 0 502.38 512"><title>how-i4</title><g id="Слой_2" data-name="Слой 2"><g id="Capa_1" data-name="Capa 1"><path d="M500.61,34.83a7.54,7.54,0,0,0-5.12-2.66L384.06,22.66,382,6.6A7.55,7.55,0,0,0,373.62.06l-103.37,13a7.38,7.38,0,0,0-1.26-.23L126.92.7a7.61,7.61,0,0,0-8.16,6.87l-2.11,24.8L6.6,46.2A7.62,7.62,0,0,0,.06,54.62L56.23,501.43c.26,2-.18,4,.65,6a7.61,7.61,0,0,0,6.95,4.6H433.74a7.54,7.54,0,0,0,7.54-7.54v-9.82l14.6,1.25A7.61,7.61,0,0,0,464,489L502.35,40.33A7.49,7.49,0,0,0,500.61,34.83ZM56.29,381,16,60.22l40.33-5.07ZM133.15,16.36l66,5.64-67.19,8.44ZM368,16l3.85,30.64H124.32Zm81.63,464.26-8.37-.71V259.19a7.54,7.54,0,0,0-15.08,0V496.92H71.37V61.68H426.2V224a7.54,7.54,0,1,0,15.08,0V54.14a7.54,7.54,0,0,0-7.54-7.54H387.07L386,38l100.71,8.61Z"/><path d="M393.53,86.81H353.32a7.52,7.52,0,0,0-6.27,3.35L330,115.76a111.46,111.46,0,0,0-65.12-20.91,7.53,7.53,0,0,0-7.54,7.54V206.93a7.53,7.53,0,0,0,7.54,7.53H369.41a7.54,7.54,0,0,0,7.54-7.53,111.8,111.8,0,0,0-35.26-81.54l15.67-23.51h36.17a7.54,7.54,0,1,0,0-15.07ZM361.58,199.39H272.41V110.21a96.52,96.52,0,0,1,49.2,18.11l-6.72,10.09a7.54,7.54,0,1,0,12.54,8.37l5.76-8.64A96.77,96.77,0,0,1,361.58,199.39Z"/><path d="M393.53,336.09H325.34l-12-19.22a111.68,111.68,0,0,0,31.46-77.78,7.54,7.54,0,0,0-7.54-7.54h-97v-97A7.55,7.55,0,0,0,232.7,127,112.08,112.08,0,1,0,302,327.15l12.8,20.48a7.56,7.56,0,0,0,6.4,3.54h72.37a7.54,7.54,0,0,0,0-15.08ZM287.34,275.3a7.54,7.54,0,0,0-12.78,8l19.36,31a97,97,0,1,1-68.76-171.9v96.71a7.54,7.54,0,0,0,7.54,7.54h96.71a96.64,96.64,0,0,1-24.36,57Z"/><path d="M168.37,376.3H104a7.54,7.54,0,0,0,0,15.08h64.33a7.54,7.54,0,0,0,0-15.08Z"/><path d="M264.87,376.3H200.54a7.54,7.54,0,1,0,0,15.08h64.33a7.54,7.54,0,1,0,0-15.08Z"/><path d="M208.58,416.51H104a7.54,7.54,0,0,0,0,15.08H208.58a7.54,7.54,0,0,0,0-15.08Z"/><path d="M264.87,416.51H240.74a7.54,7.54,0,0,0,0,15.08h24.13a7.54,7.54,0,1,0,0-15.08Z"/><path d="M136.2,456.71H104a7.54,7.54,0,1,0,0,15.08H136.2a7.54,7.54,0,1,0,0-15.08Z"/><path d="M264.87,456.71h-96.5a7.54,7.54,0,1,0,0,15.08h96.5a7.54,7.54,0,0,0,0-15.08Z"/></g></g></svg>