<svg style="fill: #4b4952;" xmlns="http://www.w3.org/2000/svg" viewBox="0 0 512 327.64"><title>res-i1</title><g id="Слой_2" data-name="Слой 2"><g id="Capa_1" data-name="Capa 1"><path d="M488.45,0H416.79a7.52,7.52,0,1,0,0,15h71.66A8.53,8.53,0,0,1,497,23.55V304.09a8.53,8.53,0,0,1-8.52,8.52H23.55A8.53,8.53,0,0,1,15,304.09V23.55A8.53,8.53,0,0,1,23.55,15H380.18a7.52,7.52,0,1,0,0-15H23.55A23.57,23.57,0,0,0,0,23.55V304.09a23.57,23.57,0,0,0,23.55,23.55h464.9A23.57,23.57,0,0,0,512,304.09V23.55A23.57,23.57,0,0,0,488.45,0Z"/><path d="M207.41,63.62a7.52,7.52,0,0,0-7.52-7.51H55.61a7.52,7.52,0,0,0-7.52,7.51V223.94a7.52,7.52,0,0,0,7.52,7.51H199.89a7.52,7.52,0,0,0,7.52-7.51ZM95.19,216.42V191.87a8.52,8.52,0,0,1,8.51-8.51h48.1a8.52,8.52,0,0,1,8.51,8.51v24.55Zm97.19,0h-17V191.87a23.57,23.57,0,0,0-23.54-23.54H103.7a23.57,23.57,0,0,0-23.54,23.54v24.55h-17V71.14H192.38Z"/><path d="M127.75,167.33a39.58,39.58,0,1,0-39.58-39.58A39.63,39.63,0,0,0,127.75,167.33Zm0-64.13a24.55,24.55,0,1,1-24.55,24.55A24.58,24.58,0,0,1,127.75,103.2Z"/><path d="M248,56.11a7.52,7.52,0,0,0,0,15H384.25a7.52,7.52,0,1,0,0-15Z"/><path d="M248,111.22h64.13a7.52,7.52,0,0,0,0-15H248a7.52,7.52,0,0,0,0,15Z"/><path d="M463.91,103.7a7.52,7.52,0,0,0-7.52-7.51H344.17a7.52,7.52,0,0,0,0,15H456.39A7.52,7.52,0,0,0,463.91,103.7Z"/><path d="M424.33,136.27H248a7.52,7.52,0,0,0,0,15H424.33a7.52,7.52,0,0,0,0-15Z"/><path d="M351.69,183.86a7.52,7.52,0,0,0-7.52-7.52H248a7.52,7.52,0,0,0,0,15h96.19A7.52,7.52,0,0,0,351.69,183.86Z"/><path d="M424.33,176.34h-48.1a7.52,7.52,0,0,0,0,15h48.1a7.52,7.52,0,0,0,0-15Z"/><path d="M248,216.42a7.52,7.52,0,0,0,0,15h56.11a7.52,7.52,0,1,0,0-15Z"/><path d="M336.16,231.45h88.17a7.52,7.52,0,0,0,0-15H336.16a7.52,7.52,0,1,0,0,15Z"/><path d="M55.61,256.5a7.52,7.52,0,1,0,0,15H95.69a7.52,7.52,0,0,0,0-15Z"/><path d="M199.89,256.5H127.75a7.52,7.52,0,1,0,0,15h72.14a7.52,7.52,0,1,0,0-15Z"/></g></g></svg>